<svg width="136" height="88" viewBox="0 0 136 88" fill="none" xmlns="http://www.w3.org/2000/svg">
<path d="M88.041 79.0459L90.1879 76.1412L82.7367 70.6475L68.2764 76.7727C67.5818 77.0884 66.8241 77.0252 66.1926 76.7727L34.8724 63.1332H17.1285C13.9081 63.1332 10.9403 61.6177 9.23535 59.0288C7.78301 56.8187 7.34099 54.1665 8.03559 51.4513L1.72104 48.6097C-0.615349 47.5363 -0.552203 44.2527 1.78418 43.2424L13.6555 38.1276C14.2238 36.8015 14.9185 35.1597 14.9185 35.1597C16.6234 31.2447 20.5384 29.4767 23.7588 29.4767H24.5797L10.814 19.2471C9.61423 18.363 9.86681 16.5318 11.256 15.9635L20.791 12.1116L21.675 1.81891C21.8013 0.366561 23.5062 -0.454331 24.706 0.429707L44.9126 15.3321L44.7863 17.6053L50.722 22.0255L66.2558 15.3321C66.8872 15.0163 67.645 15.0163 68.3396 15.3321L101.807 29.3504H118.73C122.14 29.3504 125.234 30.929 126.939 33.5811C128.265 35.6018 128.644 38.1276 128.012 40.5271L134.2 43.1161C136.6 44.1264 136.6 47.5363 134.2 48.5466L122.329 53.6614L120.561 57.5133C118.856 61.302 114.815 63.0701 111.847 63.0701H110.647L122.203 85.171C122.897 86.4971 121.761 88.0757 120.308 87.76L89.2407 81.8874C87.8515 81.7611 87.2201 80.1825 88.041 79.0459Z" fill="white"/>
<path d="M25.022 5.22852L24.2011 14.6372L15.4239 18.1734L31.4628 30.1079L33.4203 29.5395L36.767 32.0654L34.2412 33.1388H23.7591C21.8647 33.1388 19.3389 34.2123 18.2654 36.6118C18.2654 36.6118 16.9394 39.706 16.4342 40.9057L4.62598 46.0205L12.6455 49.683C12.2666 50.5039 11.9509 51.2616 11.9509 51.2616C11.0668 53.3454 11.13 55.4924 12.2666 57.1341C13.3401 58.7128 15.1081 59.66 17.1288 59.66H35.6304L67.2663 73.4257L83.2422 66.606L95.2398 75.4463L92.5877 79.0456L117.214 83.7184L105.596 61.4912L102.817 65.2799L96.7553 60.7966L99.5337 59.5968H111.847C113.805 59.5968 116.267 58.3971 117.278 56.187L119.614 51.0722L131.296 46.0205L123.34 42.6738L124.16 40.8426C124.918 39.0745 124.855 37.2433 123.908 35.7278C122.834 34.086 120.94 33.1388 118.73 33.1388H101.049L67.2663 18.9942L50.217 26.3191L40.9978 19.4363L41.1241 17.163L25.022 5.22852ZM101.87 60.2283C101.049 60.2283 100.355 60.8597 100.355 61.6806C100.355 62.5015 101.049 63.133 101.87 63.133C102.628 63.133 103.322 62.5015 103.322 61.6806C103.386 60.8597 102.691 60.2283 101.87 60.2283ZM101.87 60.544C102.502 60.544 103.07 61.0492 103.07 61.7438C103.07 62.4384 102.565 62.9435 101.87 62.9435C101.175 62.9435 100.67 62.4384 100.67 61.7438C100.67 61.1123 101.175 60.6071 101.807 60.544C101.87 60.544 101.87 60.544 101.87 60.544ZM101.302 60.8597V62.5647H101.554V61.8069H101.87L102.312 62.5647H102.628L102.123 61.8069C102.375 61.7438 102.565 61.6175 102.565 61.3018C102.565 60.986 102.375 60.7966 101.933 60.7966H101.302V60.8597ZM101.554 61.1123H101.933C102.123 61.1123 102.312 61.1755 102.312 61.3649C102.312 61.6175 102.06 61.6175 101.87 61.6175H101.554V61.1123Z" fill="white"/>
<path d="M26.7263 9.01367L26.0948 16.0228L19.5908 18.6749L31.9673 27.831L33.9249 27.2627L39.0396 31.0515L48.1326 27.1364L38.9765 20.3799L39.0396 18.1698L26.7263 9.01367ZM94.5446 61.677L85.4516 65.5921L98.1439 75.0007L96.1864 77.5897L113.488 80.8733L105.342 65.2763L103.259 68.1179L94.5446 61.677Z" fill="#333333"/>
<path d="M67.3303 21.457L34.7472 35.4122H23.7599C22.5601 35.4122 20.9815 36.1068 20.4132 37.496L18.2031 42.6108L10.373 45.9575L15.6773 48.357L14.0986 52.0195C12.7726 55.0505 14.7932 57.1343 17.1296 57.1343H63.4153L63.289 57.5131L41.1249 59.3443L67.3303 70.7737L99.0294 57.1974H111.848C113.048 57.1974 114.563 56.4397 115.195 55.1136L117.91 49.1779L125.361 45.9575L120.246 43.8105C120.246 43.8105 120.751 42.6108 122.014 39.7692C123.088 37.3066 121.257 35.4122 118.668 35.4122H72.0031L72.1294 35.0333L95.4301 33.2652L67.3303 21.457ZM26.0963 37.7486H34.6209C35.947 37.7486 36.5784 38.6326 36.0733 40.0218L34.6841 43.3054H29.3167L30.0744 41.5373H27.1698L26.0331 44.3157L31.6531 46.0838C32.6003 46.3995 32.9791 47.3467 32.6003 48.2939L30.4533 53.4087C30.0745 54.2927 28.6852 55.0505 27.4223 55.0505H18.582C17.5085 55.0505 16.435 54.3559 17.0665 52.7141L18.4557 49.4305H23.823L23.0022 51.388H25.8437L26.854 48.8622L21.2341 47.0941C20.2869 46.7784 19.9712 45.8312 20.35 44.8209L22.497 39.6429C23.0653 38.38 24.2019 37.7486 26.0963 37.7486ZM39.5463 37.7486H44.9137L39.2306 51.4512H42.0721L47.7552 37.7486H53.1226C53.1226 37.7486 46.8712 52.6509 46.6186 53.3455C46.3029 54.2296 44.9136 55.0505 43.5244 55.0505H34.6841C33.2317 55.0505 32.7266 53.9138 33.2317 52.7141C33.8 51.7669 39.6094 37.7486 39.5463 37.7486ZM55.7747 37.7486H61.2052L62.5944 45.9575L65.6885 38.5695L62.1524 37.7486H71.3085L64.1099 55.0505H58.932L57.4165 46.9678L54.0698 55.0505H48.6392L55.7747 37.7486ZM76.6758 37.7486H85.0742C86.4634 37.7486 87.0949 38.7589 86.5897 40.0218L81.0329 53.3455C80.5909 54.3559 79.2648 55.0505 78.0651 55.0505H69.1615C67.7092 55.0505 67.1409 53.977 67.646 52.7141L73.0766 39.5798C73.7712 38.1906 75.2866 37.7486 76.6758 37.7486ZM92.9042 37.7486H101.303C102.692 37.7486 103.323 38.7589 102.818 40.0218L101.429 43.3054H96.0615L96.7561 41.5373H93.9777L89.8733 51.4512H92.7148L93.7883 48.8622H99.1556L97.2613 53.3455C96.8193 54.3559 95.4932 55.0505 94.2934 55.0505H85.3899C83.9376 55.0505 83.3693 53.977 83.8744 52.7141L89.305 39.5798C89.9996 38.1906 91.515 37.7486 92.9042 37.7486ZM109.133 37.7486H117.531C118.92 37.7486 119.552 38.7589 119.046 40.0218L113.553 53.3455C113.111 54.3559 111.722 55.0505 110.585 55.0505H101.681C100.229 55.0505 99.6608 53.977 100.166 52.7141L105.66 39.5798C106.228 38.1906 107.743 37.7486 109.133 37.7486ZM77.7493 41.5373L73.6449 51.4512H76.4864L80.5909 41.5373H77.7493ZM110.206 41.5373L106.102 51.4512H109.006L113.111 41.5373H110.206Z" fill="#232323"/>
</svg>
